<svg version="1.1" width="1000" height="1000" viewBox="0 0 1000 1000"><defs></defs>
    <rect x="0" y="0" width="100%" height="100%"/>
    <g transform="matrix(1.9089 0 0 1.9089 500.0065 500.0065)">
    <g vector-effect="non-scaling-stroke">
    <g transform="matrix(1 0 0 1 -3.1445 -142.948)">
    <path style="stroke: none; stroke-width: 1; stroke-dasharray: none; stroke-linecap: butt; stroke-dashoffset: 0; stroke-linejoin: miter; stroke-miterlimit: 4; is-custom-font: none; font-file-url: none; fill: rgb(0,0,0); fill-rule: nonzero; opacity: 1;" transform=" translate(-234.978, -95.1745)" d="M 395.131 179.034 h 12.924 h 6.304 h 25.375 C 426.408 78.135 339.908 0 235.431 0 C 128.256 0 39.962 82.214 30.222 186.882 h 23.98 h 7.57 h 19.333 c 4.757 0 9.169 1.331 13.078 3.467 c 19.39 -59.522 75.336 -102.685 141.24 -102.685 c 64.75 0 119.815 41.709 140.109 99.621 C 380.531 182.208 387.465 179.034 395.131 179.034 z M 235.431 48.412 c -69.477 0 -130.097 37.754 -162.591 93.838 C 98.411 77.417 161.628 31.4 235.431 31.4 c 73.789 0 137.006 46.011 162.581 110.833 C 365.523 86.157 304.903 48.412 235.431 48.412 z" strokeLinecap="round"/></g><g transform="matrix(1 0 0 1 0.0595 125.738)"><path style="stroke: none; stroke-width: 1; stroke-dasharray: none; stroke-linecap: butt; stroke-dashoffset: 0; stroke-linejoin: miter; stroke-miterlimit: 4; is-custom-font: none; font-file-url: none; fill: rgb(0,0,0); fill-rule: nonzero; opacity: 1;" transform=" translate(-238.182, -363.8605)" d="M 108.592 313.202 v 7.71 c 0 13.986 -10.542 25.439 -24.077 27.135 c 34.228 46.121 89.067 76.009 150.916 76.009 c 65.281 0 122.756 -33.317 156.418 -83.844 c -13.585 -1.643 -24.197 -13.12 -24.197 -27.15 v -9.397 c -24.621 48.086 -74.586 81.143 -132.221 81.143 C 181.701 384.807 134.688 356.042 108.592 313.202 z" strokeLinecap="round"/></g><g transform="matrix(1 0 0 1 -56.2635 -10.6695)"><path style="stroke: none; stroke-width: 1; stroke-dasharray: none; stroke-linecap: butt; stroke-dashoffset: 0; stroke-linejoin: miter; stroke-miterlimit: 4; is-custom-font: none; font-file-url: none; fill: rgb(0,0,0); fill-rule: nonzero; opacity: 1;" transform=" translate(-181.859, -227.453)" d="M 181.859 198.666 c 15.899 0 28.787 12.892 28.787 28.787 c 0 15.899 -12.888 28.787 -28.787 28.787 c -15.901 0 -28.787 -12.888 -28.787 -28.787 C 153.072 211.558 165.958 198.666 181.859 198.666 z" strokeLinecap="round"/></g><g transform="matrix(1 0 0 1 53.643 -10.6695)"><path style="stroke: none; stroke-width: 1; stroke-dasharray: none; stroke-linecap: butt; stroke-dashoffset: 0; stroke-linejoin: miter; stroke-miterlimit: 4; is-custom-font: none; font-file-url: none; fill: rgb(0,0,0); fill-rule: nonzero; opacity: 1;" transform=" translate(-291.7655, -227.453)" d="M 291.763 198.666 c 15.901 0 28.79 12.892 28.79 28.787 c 0 15.899 -12.889 28.787 -28.79 28.787 c -15.897 0 -28.785 -12.888 -28.785 -28.787 C 262.978 211.558 275.865 198.666 291.763 198.666 z" strokeLinecap="round"/></g><g transform="matrix(1 0 0 1 0.0005 93.4414)"><path style="stroke: none; stroke-width: 1; stroke-dasharray: none; stroke-linecap: butt; stroke-dashoffset: 0; stroke-linejoin: miter; stroke-miterlimit: 4; is-custom-font: none; font-file-url: none; fill: rgb(0,0,0); fill-rule: nonzero; opacity: 1;" transform=" translate(-238.123, -331.5639)" d="M 437.381 336.613 c 0.084 -1.311 0.16 -2.629 0.244 -3.923 h 12.455 c 10.828 0 19.629 -8.801 19.629 -19.629 V 206.508 c 0 -10.824 -8.801 -19.626 -19.629 -19.626 h -9.434 h -23.98 h -7.582 h -13.953 c -7.102 0 -13.265 3.827 -16.715 9.484 c -1.808 2.971 -2.914 6.424 -2.914 10.143 v 78.802 v 27.76 c 0 10.828 8.805 19.628 19.629 19.628 h 1.471 h 25.423 c -0.064 1.294 -0.141 2.621 -0.2 3.923 c -0.076 1.311 -0.137 2.609 -0.209 3.928 c -2.075 37.834 -5.113 79.615 14.207 111.254 c -57.964 -17.18 -117.931 -15.088 -178.916 -14.543 c -41.309 0.373 -81.964 -2.284 -121.559 -14.812 c -30.831 -9.754 -69.439 -39.368 -75.231 -74.049 c -0.222 -1.298 -0.349 -2.617 -0.471 -3.927 c -0.126 -1.303 -0.237 -2.605 -0.261 -3.924 h 19.857 h 1.881 c 10.824 0 19.626 -8.801 19.626 -19.628 v -22.362 v -84.2 c 0 -6.789 -3.471 -12.78 -8.72 -16.302 c -3.125 -2.096 -6.871 -3.324 -10.906 -3.324 H 61.105 h -8.838 H 29.623 h -3.46 c -10.826 0 -19.626 8.803 -19.626 19.626 v 106.553 c 0 10.828 8.8 19.629 19.626 19.629 h 17.151 c -0.014 1.318 -0.014 2.629 0.048 3.923 c 0.064 1.318 0.202 2.625 0.336 3.928 c 5.354 50.337 66.329 84.437 111.154 95.981 c 99.637 25.66 204.154 -10.019 301.73 31.178 c 9.205 3.888 17.217 -9.634 7.919 -13.561 c -0.528 -0.213 -1.058 -0.405 -1.595 -0.63 c -0.345 -1.162 -0.926 -2.319 -2.056 -3.378 c -30.625 -28.725 -26.441 -76.237 -23.729 -117.441 C 437.217 339.223 437.297 337.92 437.381 336.613 z" strokeLinecap="round"/></g></g></g></svg>